<svg width="47" height="47" viewBox="0 0 47 47" fill="none" xmlns="http://www.w3.org/2000/svg">
<g style="mix-blend-mode:difference">
<path d="M24.3605 13.0225C23.8637 12.9412 23.3537 12.896 22.8345 12.896C22.3154 12.896 21.8046 12.9412 21.3086 13.0225C22.2607 10.8704 22.803 8.49637 22.8303 6H22.8394C22.8668 8.49637 23.409 10.8697 24.3612 13.0225H24.3605Z" fill="black"/>
<path d="M19.7906 19.512C20.7841 19.3493 21.8042 19.2589 22.8432 19.2589C23.8822 19.2589 24.9023 19.3493 25.8957 19.512C28.1559 24.6404 31.5777 29.1491 35.8304 32.7122C36.4925 32.0474 37.1202 31.3521 37.6681 30.5913C32.5564 26.8384 28.4649 21.7921 25.8866 15.9406C24.8932 15.7779 23.8731 15.6875 22.8341 15.6875C21.795 15.6875 20.775 15.7779 19.7815 15.9406C17.2032 21.7914 13.1117 26.8377 8 30.5913C8.55068 31.3549 9.18123 32.053 9.84611 32.7206C14.103 29.1561 17.529 24.6445 19.7906 19.5127V19.512Z" fill="black"/>
<circle cx="23.3571" cy="23.3571" r="22.0595" stroke="black" stroke-width="2.59524"/>
</g>
</svg>
